<svg width="141" height="26" viewBox="0 0 141 26" fill="none" xmlns="http://www.w3.org/2000/svg">
<path d="M27.0537 1.68858C27.0537 1.68858 24.5723 3.07879 23.1924 3.47283C22.4518 2.66527 21.4675 2.09288 20.3727 1.83309C19.2779 1.57332 18.1254 1.63866 17.071 2.0203C16.0167 2.40194 15.1112 3.08146 14.4774 3.96695C13.8435 4.85245 13.5117 5.9012 13.5269 6.97136V8.13754C11.3658 8.19067 9.22443 7.73616 7.29345 6.81444C5.36247 5.89273 3.70184 4.53246 2.45943 2.85476C2.45943 2.85476 -2.45943 13.3504 8.60801 18.0151C6.07545 19.6453 3.0585 20.4628 0 20.3475C11.0674 26.1784 24.5943 20.3475 24.5943 6.93638C24.5932 6.61154 24.5602 6.28751 24.4959 5.96845C25.751 4.79468 27.0537 1.68858 27.0537 1.68858Z" fill="white"/>
<path fill-rule="evenodd" clip-rule="evenodd" d="M66.9517 25.3017V21.5825C65.5172 21.9423 64.1004 21.9272 62.8029 21.4261C61.3722 20.8736 60.2389 19.7888 59.4348 18.3037C59.0705 17.6309 59.3206 16.7902 59.9934 16.4259C60.6661 16.0616 61.5069 16.3117 61.8712 16.9845C62.4197 17.9975 63.09 18.5669 63.8011 18.8415C64.5214 19.1197 65.4368 19.154 66.568 18.8151C66.712 18.772 66.8574 18.7534 66.9999 18.757C67.0305 18.5882 67.0779 18.4218 67.1417 18.2602C67.2878 17.89 67.5166 17.5523 67.8133 17.2692C64.9817 16.9445 62.0058 15.9536 62.0058 11.4403C61.999 10.2691 62.4838 9.14101 63.3584 8.29274C62.9474 7.27561 62.9764 6.15133 63.4396 5.15345C63.4396 5.15345 64.5037 4.86202 66.9656 6.38586C69.0326 5.8686 71.2112 5.8686 73.2781 6.38586C75.74 4.86202 76.8042 5.15345 76.8042 5.15345C77.2673 6.15133 77.2964 7.27561 76.8853 8.29274C77.7535 9.13476 78.2377 10.2528 78.238 11.4154C78.238 15.9619 75.2621 16.9529 72.4305 17.2443C72.7307 17.5303 72.9616 17.872 73.1077 18.2467C73.2539 18.6214 73.3119 19.0206 73.2781 19.4176V21.8075H73.2668V25.3074C79.2207 23.963 83.6487 18.8858 83.6487 12.8279C83.6487 5.74327 77.5925 0 70.1219 0C62.6512 0 56.595 5.74327 56.595 12.8279C56.595 18.8772 61.0104 23.9486 66.9517 25.3017Z" fill="#D9D9D9"/>
<path fill-rule="evenodd" clip-rule="evenodd" d="M116.929 17.2629C117.175 16.7709 117.773 16.5715 118.265 16.8175C121.521 18.4452 124.016 19.2024 126.452 19.2024C128.888 19.2024 131.383 18.4452 134.639 16.8175C135.131 16.5715 135.729 16.7709 135.975 17.2629C136.221 17.7549 136.022 18.3532 135.53 18.5992C132.145 20.2915 129.328 21.1944 126.452 21.1944C123.576 21.1944 120.759 20.2915 117.374 18.5992C116.882 18.3532 116.683 17.7549 116.929 17.2629Z" fill="#D9D9D9"/>
<path fill-rule="evenodd" clip-rule="evenodd" d="M130.631 0.795419L130.436 1.77209C130.631 0.795419 130.631 0.795388 130.631 0.795419L130.636 0.796322L130.645 0.798212L130.678 0.804953C130.705 0.810763 130.745 0.81921 130.796 0.830297C130.897 0.852463 131.042 0.885228 131.221 0.928616C131.578 1.01526 132.075 1.14497 132.638 1.31813C133.743 1.65809 135.182 2.18979 136.301 2.93539C139.029 4.75459 140.069 8.30675 140.485 11.2722C140.841 13.8213 140.769 16.2328 140.738 17.2771C140.733 17.4702 140.728 17.6165 140.728 17.7083C140.728 17.8918 140.677 18.0717 140.582 18.2281C139.541 19.9287 137.486 21.1948 135.863 22.005C135.025 22.4235 134.247 22.7467 133.679 22.9653C133.394 23.0748 133.161 23.1587 132.997 23.2157C132.915 23.2443 132.85 23.2661 132.805 23.2811C132.782 23.2886 132.764 23.2944 132.752 23.2984L132.737 23.3033L132.733 23.3047L132.731 23.3051C132.731 23.3052 132.73 23.3055 132.428 22.3564L132.73 23.3055C132.263 23.4543 131.757 23.2406 131.537 22.8018L130.209 20.1458C129.963 19.6538 130.163 19.0555 130.655 18.8095C131.147 18.5635 131.745 18.7629 131.991 19.2549L132.924 21.1213C132.937 21.1163 132.95 21.1112 132.963 21.1061C133.489 20.9039 134.206 20.6058 134.973 20.2228C136.465 19.4781 137.965 18.4994 138.741 17.4025C138.743 17.3307 138.745 17.2521 138.748 17.1671C138.779 16.0673 138.84 13.8954 138.512 11.5483C138.107 8.65493 137.155 5.899 135.196 4.59286C134.322 4.01043 133.105 3.54611 132.052 3.22207C131.645 3.09679 131.275 2.99612 130.976 2.92023L129.999 4.87356C129.83 5.211 129.485 5.42415 129.108 5.42415H126.452C125.902 5.42415 125.456 4.97821 125.456 4.42813C125.456 3.87805 125.902 3.43212 126.452 3.43212H128.492L129.545 1.32666C129.746 0.924925 130.191 0.707332 130.631 0.795419Z" fill="#D9D9D9"/>
<path fill-rule="evenodd" clip-rule="evenodd" d="M122.31 0.795449C122.751 0.707362 123.195 0.924958 123.396 1.3267L124.449 3.43215H126.489C127.04 3.43215 127.485 3.87808 127.485 4.42816C127.485 4.97825 127.04 5.42418 126.489 5.42418H123.833C123.456 5.42418 123.111 5.21102 122.943 4.87359L121.966 2.92026C121.667 2.99615 121.296 3.09683 120.889 3.2221C119.836 3.54614 118.619 4.01046 117.746 4.59289C115.787 5.89903 114.835 8.65496 114.43 11.5483C114.101 13.8954 114.163 16.0674 114.194 17.1671C114.196 17.2521 114.198 17.3307 114.2 17.4025C114.977 18.4994 116.476 19.4781 117.968 20.2228C118.735 20.6058 119.452 20.9039 119.978 21.1062C119.991 21.1113 120.004 21.1163 120.017 21.1213L120.951 19.255C121.197 18.7629 121.795 18.5635 122.287 18.8095C122.779 19.0555 122.978 19.6538 122.732 20.1458L121.404 22.8019C121.185 23.2406 120.679 23.4543 120.211 23.3055L120.513 22.3564C120.211 23.3055 120.211 23.3056 120.211 23.3055L120.209 23.3047L120.204 23.3033L120.189 23.2985C120.177 23.2944 120.159 23.2886 120.137 23.2811C120.092 23.2661 120.027 23.2443 119.945 23.2158C119.781 23.1587 119.547 23.0749 119.263 22.9653C118.694 22.7467 117.916 22.4235 117.078 22.0051C115.455 21.1948 113.4 19.9287 112.36 18.2282C112.264 18.0717 112.213 17.8918 112.213 17.7084C112.213 17.6166 112.209 17.4702 112.203 17.2771C112.172 16.2329 112.1 13.8213 112.457 11.2722C112.872 8.30678 113.912 4.75463 116.641 2.93542C117.759 2.18982 119.199 1.65812 120.304 1.31816C120.866 1.145 121.364 1.01529 121.721 0.928647C121.9 0.885259 122.045 0.852493 122.146 0.830328C122.196 0.819241 122.236 0.810794 122.264 0.804984L122.296 0.798243L122.306 0.796353L122.31 0.795449C122.31 0.795418 122.31 0.795449 122.505 1.77212L122.31 0.795449Z" fill="#D9D9D9"/>
<path fill-rule="evenodd" clip-rule="evenodd" d="M121.192 11.1157C120.973 11.408 120.808 11.8575 120.808 12.3963C120.808 12.9351 120.973 13.3845 121.192 13.6768C121.411 13.9687 121.638 14.0563 121.804 14.0563C121.97 14.0563 122.197 13.9687 122.416 13.6768C122.635 13.3845 122.8 12.9351 122.8 12.3963C122.8 11.8575 122.635 11.408 122.416 11.1157C122.197 10.8238 121.97 10.7362 121.804 10.7362C121.638 10.7362 121.411 10.8238 121.192 11.1157ZM119.598 9.92052C120.1 9.2512 120.87 8.7442 121.804 8.7442C122.738 8.7442 123.507 9.2512 124.009 9.92052C124.511 10.5895 124.792 11.4681 124.792 12.3963C124.792 13.3244 124.511 14.203 124.009 14.872C123.507 15.5413 122.738 16.0483 121.804 16.0483C120.87 16.0483 120.1 15.5413 119.598 14.872C119.097 14.203 118.816 13.3244 118.816 12.3963C118.816 11.4681 119.097 10.5895 119.598 9.92052Z" fill="#D9D9D9"/>
<path fill-rule="evenodd" clip-rule="evenodd" d="M130.488 11.1158C130.269 11.408 130.104 11.8575 130.104 12.3963C130.104 12.935 130.269 13.3845 130.488 13.6768C130.707 13.9687 130.934 14.0563 131.1 14.0563C131.266 14.0563 131.493 13.9687 131.712 13.6768C131.931 13.3845 132.096 12.935 132.096 12.3963C132.096 11.8575 131.931 11.408 131.712 11.1158C131.493 10.8238 131.266 10.7362 131.1 10.7362C130.934 10.7362 130.707 10.8238 130.488 11.1158ZM128.895 9.92052C129.397 9.25121 130.166 8.7442 131.1 8.7442C132.034 8.7442 132.803 9.25121 133.305 9.92052C133.807 10.5895 134.088 11.4681 134.088 12.3963C134.088 13.3244 133.807 14.203 133.305 14.872C132.803 15.5413 132.034 16.0483 131.1 16.0483C130.166 16.0483 129.397 15.5413 128.895 14.872C128.393 14.203 128.112 13.3244 128.112 12.3963C128.112 11.4681 128.393 10.5895 128.895 9.92052Z" fill="#D9D9D9"/>
</svg>
