<svg width="177" height="52" viewBox="0 0 177 52" fill="none" xmlns="http://www.w3.org/2000/svg">
<path d="M63.4232 28.6874C63.4232 25.0362 66.1024 22.3742 69.628 22.3742C71.8331 22.3742 73.4478 23.3253 74.3712 24.6309V16.9485H76.4095V34.7976H74.3712V32.8201C73.4478 34.113 71.8331 35.0514 69.628 35.0514C66.1024 35.0514 63.4232 32.3386 63.4232 28.6874ZM65.4486 28.6874C65.4486 31.1971 67.2687 33.2254 69.8333 33.2254C72.4612 33.2254 74.3968 31.1971 74.3968 28.6874C74.3968 26.165 72.4612 24.2002 69.8333 24.2002C67.2687 24.2002 65.4486 26.165 65.4486 28.6874Z" fill="#D6C6FF"/>
<path d="M85.9473 22.3741C89.0235 22.3741 91.8825 24.5166 91.8825 28.0917C91.8825 28.4589 91.8697 28.8651 91.8183 29.2069H81.6781C81.8065 31.4256 83.4854 33.2127 86.05 33.2127C87.7802 33.2127 89.0501 32.4139 89.934 31.1717L91.4855 32.2869C90.3577 34.0106 88.3579 35.0505 86.05 35.0505C82.3447 35.0505 79.6141 32.2869 79.6141 28.7119C79.6141 25.1368 82.4474 22.3741 85.9473 22.3741ZM81.7551 27.5468H89.8442C89.703 25.5439 88.0498 24.2129 85.9601 24.2129C83.832 24.2129 82.0632 25.5439 81.7551 27.5468Z" fill="#D6C6FF"/>
<path d="M94.2802 31.3241C94.2802 29.0673 96.4212 27.496 99.6515 27.496C101.01 27.496 102.254 27.8261 103.151 28.206V27.3183C103.151 25.417 101.703 24.251 99.7029 24.251C98.2156 24.251 96.8824 24.9102 95.8958 26.0508L94.5755 24.8086C95.6776 23.338 97.7031 22.3751 99.6909 22.3751C103.024 22.3751 105.178 24.251 105.178 27.1542V34.7985H103.178V32.9479C102.422 34.1901 100.934 35.0523 99.1527 35.0523C96.3057 35.0514 94.2802 33.695 94.2802 31.3241ZM96.3442 31.286C96.3442 32.6551 97.6132 33.3904 99.2802 33.3904C101.562 33.3904 103.151 31.6541 103.151 29.8788C102.344 29.41 100.985 29.08 99.7542 29.08C97.7801 29.08 96.3442 29.8534 96.3442 31.286Z" fill="#D6C6FF"/>
<path d="M109.112 34.7976V22.628H111.163V24.4532C111.856 23.3253 113.317 22.3741 115.279 22.3741C118.522 22.3741 120.47 24.2628 120.47 27.3945V34.7976H118.432V27.8886C118.432 25.5185 117.188 24.2755 114.958 24.2755C112.855 24.2755 111.151 25.708 111.151 27.9267V34.7976H109.112Z" fill="#D6C6FF"/>
<path d="M125.022 31.1845C125.701 32.4012 126.919 33.2381 128.701 33.2381C130.304 33.2381 131.445 32.5663 131.445 31.5263C131.445 30.3984 130.598 30.0429 128.522 29.5869C125.894 29.0039 124.022 28.2051 124.022 25.8722C124.022 23.7424 126.061 22.3733 128.599 22.3733C130.817 22.3733 132.457 23.4377 133.188 24.63L131.79 25.7706C131.201 24.9211 130.188 24.1858 128.599 24.1858C127.034 24.1858 126.035 24.8322 126.035 25.8341C126.035 27.0001 127.022 27.3174 129.112 27.8116C131.766 28.4454 133.496 29.2822 133.496 31.5263C133.496 33.6815 131.291 35.0506 128.701 35.0506C126.15 35.0506 124.342 33.9861 123.458 32.3124L125.022 31.1845Z" fill="#D6C6FF"/>
<path d="M136.79 16.9485H138.829V34.7976H136.79V16.9485Z" fill="#D6C6FF"/>
<path d="M143.943 17.304C144.687 17.304 145.225 17.8108 145.225 18.5461C145.225 19.2814 144.687 19.801 143.943 19.801C143.2 19.801 142.687 19.2814 142.687 18.5461C142.687 17.8108 143.2 17.304 143.943 17.304ZM144.969 22.628V34.7976H142.931V22.628H144.969Z" fill="#D6C6FF"/>
<path d="M149.687 31.1845C150.366 32.4012 151.584 33.2381 153.366 33.2381C154.969 33.2381 156.11 32.5663 156.11 31.5263C156.11 30.3984 155.264 30.0429 153.187 29.5869C150.559 29.0039 148.687 28.2051 148.687 25.8722C148.687 23.7424 150.726 22.3733 153.264 22.3733C155.482 22.3733 157.122 23.4377 157.853 24.63L156.456 25.7706C155.866 24.9211 154.853 24.1858 153.264 24.1858C151.699 24.1858 150.7 24.8322 150.7 25.8341C150.7 27.0001 151.688 27.3174 153.777 27.8116C156.431 28.4454 158.161 29.2822 158.161 31.5263C158.161 33.6815 155.956 35.0506 153.366 35.0506C150.816 35.0506 149.007 33.9861 148.123 32.3124L149.687 31.1845Z" fill="#D6C6FF"/>
<path d="M159.878 24.3644V22.6281H162.161V18.7239H164.173V22.6281H168.237V24.3644H164.186V30.9433C164.186 32.5409 165.058 33.2381 166.314 33.2381C166.981 33.2381 167.827 33.0604 168.417 32.7693L168.686 34.5057C168.161 34.7976 167.096 35.0506 166.097 35.0506C163.726 35.0506 162.149 33.7576 162.149 31.2733V24.3644H159.878Z" fill="#D6C6FF"/>
<path d="M19.0214 34.308L23.3694 14.7027C23.6931 13.2692 24.1158 11.3951 23.9938 10.2101C26.0422 10.4694 29.6641 11.192 31.7831 11.659C38.659 13.1768 41.6069 18.2651 39.6328 27.0119C37.5835 36.0896 32.8183 39.0499 26.0908 37.5657L20.3674 36.3018C19.2882 36.0642 18.7977 35.2999 19.0214 34.308ZM26.2476 36.173C31.1165 37.2475 34.4687 34.6697 36.3191 26.4742C38.1611 18.3149 36.3356 14.1306 31.4667 13.0562L27.0811 12.0878L21.8996 35.2129L26.2476 36.173Z" fill="url(#paint0_linear_211_3)"/>
<path d="M40.5415 36.8367L45.3957 15.3365C45.6276 14.3074 46.5042 13.8831 47.5073 14.1052C48.3619 14.2938 48.8286 14.8215 49.0679 15.1443C48.3151 16.4055 47.8218 18.4192 46.9663 22.2046L43.5481 37.3463C43.2657 38.5957 43.5912 39.4008 44.5209 39.6057C45.0408 39.7209 45.6937 39.5949 46.0705 39.1379C46.2768 39.6075 46.2887 40.0736 46.2218 40.3674C45.9559 41.5433 44.564 42.0075 43.152 41.6956C40.9211 41.2033 39.9602 39.409 40.5415 36.8367Z" fill="url(#paint1_linear_211_3)"/>
<path d="M14.8898 29.5687C15.0392 28.9068 15.7664 28.4507 16.4357 28.5985C17.1051 28.7463 17.5663 29.4653 17.4168 30.1272C17.2674 30.7891 16.5402 31.2452 15.8709 31.0974C15.2025 30.9496 14.7403 30.2306 14.8898 29.5687ZM17.6946 17.1471C17.8441 16.4852 18.5712 16.0292 19.2406 16.176C19.9099 16.3238 20.3711 17.0428 20.2217 17.7047C20.0722 18.3666 19.3451 18.8227 18.6757 18.6758C18.0064 18.528 17.5452 17.8081 17.6946 17.1471Z" fill="url(#paint2_linear_211_3)"/>
<path d="M49.0825 37.1178C49.232 36.4559 49.9591 35.9999 50.6285 36.1468C51.2978 36.2945 51.759 37.0136 51.6096 37.6754C51.4601 38.3373 50.733 38.7934 50.0637 38.6456C49.3952 38.4987 48.9331 37.7788 49.0825 37.1178ZM51.8874 24.6953C52.0369 24.0334 52.764 23.5774 53.4333 23.7243C54.1027 23.872 54.5639 24.591 54.4153 25.2529C54.2659 25.9148 53.5388 26.3709 52.8694 26.2231C52.2001 26.0762 51.7379 25.3563 51.8874 24.6953Z" fill="url(#paint3_linear_211_3)"/>
<path d="M34.6521 4.02827C37.6523 4.02827 40.5626 4.60945 43.3005 5.7546C45.9467 6.86075 48.3225 8.44564 50.3635 10.4639C52.4046 12.4822 54.0064 14.8323 55.126 17.4481C56.284 20.1564 56.8718 23.0333 56.8718 26C56.8718 28.9667 56.284 31.8445 55.126 34.5519C54.0073 37.1685 52.4046 39.5178 50.3635 41.5361C48.3225 43.5543 45.9458 45.1383 43.3005 46.2454C40.5617 47.3905 37.6523 47.9717 34.6521 47.9717C31.652 47.9717 28.7417 47.3905 26.0038 46.2454C23.3575 45.1392 20.9818 43.5543 18.9407 41.5361C16.8997 39.5178 15.2978 37.1676 14.1783 34.5519C13.0202 31.8436 12.4325 28.9667 12.4325 26C12.4325 23.0333 13.0202 20.1555 14.1783 17.4481C15.2969 14.8314 16.8997 12.4822 18.9407 10.4639C20.9818 8.44564 23.3585 6.86166 26.0038 5.7546C28.7426 4.60855 31.652 4.02827 34.6521 4.02827ZM34.6521 2.94025C21.7722 2.94025 11.3322 13.2647 11.3322 26C11.3322 38.7353 21.7731 49.0606 34.6521 49.0606C47.5312 49.0606 57.973 38.7362 57.973 26C57.973 13.2638 47.5321 2.94025 34.6521 2.94025Z" fill="#D6C6FF"/>
<defs>
<linearGradient id="paint0_linear_211_3" x1="38.6737" y1="30.8661" x2="18.7315" y2="19.2225" gradientUnits="userSpaceOnUse">
<stop stop-color="#EA96FF"/>
<stop offset="0.2836" stop-color="#BA9EFF"/>
<stop offset="0.6786" stop-color="#BA9EFF"/>
<stop offset="1" stop-color="#C8F0FF"/>
</linearGradient>
<linearGradient id="paint1_linear_211_3" x1="51.5042" y1="31.4718" x2="39.8439" y2="24.6638" gradientUnits="userSpaceOnUse">
<stop stop-color="#EA96FF"/>
<stop offset="0.2836" stop-color="#BA9EFF"/>
<stop offset="0.6786" stop-color="#BA9EFF"/>
<stop offset="1" stop-color="#C8F0FF"/>
</linearGradient>
<linearGradient id="paint2_linear_211_3" x1="20.3406" y1="25.2269" x2="14.8022" y2="21.9932" gradientUnits="userSpaceOnUse">
<stop stop-color="#EA96FF"/>
<stop offset="0.2836" stop-color="#BA9EFF"/>
<stop offset="0.6786" stop-color="#BA9EFF"/>
<stop offset="1" stop-color="#C8F0FF"/>
</linearGradient>
<linearGradient id="paint3_linear_211_3" x1="54.5337" y1="32.7752" x2="48.9953" y2="29.5415" gradientUnits="userSpaceOnUse">
<stop stop-color="#EA96FF"/>
<stop offset="0.2836" stop-color="#BA9EFF"/>
<stop offset="0.6786" stop-color="#BA9EFF"/>
<stop offset="1" stop-color="#C8F0FF"/>
</linearGradient>
</defs>
</svg>
