<svg width="27" height="25" viewBox="0 0 27 25" fill="none" xmlns="http://www.w3.org/2000/svg">
<g id="Menu Icon">
<path id="Vector (Stroke)" fill-rule="evenodd" clip-rule="evenodd" d="M0 22.7586C0 23.9066 0.806652 24.8373 1.80171 24.8373H11.9065C12.9016 24.8373 13.7082 23.9066 13.7082 22.7586C13.7082 21.6105 12.9016 20.6798 11.9065 20.6798H1.80171C0.806652 20.6798 0 21.6105 0 22.7586Z" fill="#D6C6FF"/>
<path id="Vector (Stroke)_2" fill-rule="evenodd" clip-rule="evenodd" d="M0 12.557C0 13.7051 0.806652 14.6358 1.80171 14.6358H18.222C19.2171 14.6358 20.0237 13.7051 20.0237 12.557C20.0237 11.4089 19.2171 10.4782 18.222 10.4782H1.80171C0.806652 10.4782 0 11.4089 0 12.557Z" fill="#D6C6FF"/>
<path id="Vector (Stroke)_3" fill-rule="evenodd" clip-rule="evenodd" d="M0 2.35567C0 3.50375 0.806652 4.43445 1.80171 4.43445H24.5375C25.5326 4.43445 26.3393 3.50375 26.3393 2.35567C26.3393 1.20759 25.5326 0.276883 24.5375 0.276883H1.80171C0.806652 0.276883 0 1.20759 0 2.35567Z" fill="#D6C6FF"/>
</g>
</svg>
